<?xml version="1.0" standalone="no"?>
<!DOCTYPE svg PUBLIC "-//W3C//DTD SVG 20010904//EN"
 "http://www.w3.org/TR/2001/REC-SVG-20010904/DTD/svg10.dtd">
<svg version="1.0" xmlns="http://www.w3.org/2000/svg"
 width="1280.000000pt" height="420.000000pt" viewBox="0 0 1280.000000 420.000000"
 preserveAspectRatio="xMidYMid meet">
<metadata>
Created by potrace 1.15, written by Peter Selinger 2001-2017
</metadata>
<g transform="translate(0.000000,420.000000) scale(0.100000,-0.100000)"
fill="#000000" stroke="none">
<path d="M1470 4189 c-489 -60 -921 -323 -1191 -723 -145 -215 -229 -439 -264
-699 -19 -148 -19 -245 0 -390 82 -629 520 -1152 1131 -1352 170 -56 309 -77
514 -78 355 0 624 76 890 252 103 68 271 228 349 331 109 145 195 342 243 557
19 84 22 130 22 328 1 127 -3 247 -7 268 l-8 37 -744 0 -745 0 0 -225 0 -225
525 0 525 0 0 -29 c0 -62 -51 -229 -101 -331 -47 -95 -62 -115 -158 -210 -149
-148 -274 -217 -500 -278 -86 -23 -115 -25 -276 -26 -134 0 -199 4 -253 17
-242 56 -433 159 -590 318 -101 104 -154 177 -217 304 -98 198 -131 359 -122
594 7 191 40 319 125 486 198 392 595 636 1036 635 280 -1 491 -74 727 -252
l81 -61 22 24 c13 13 80 84 151 157 l128 133 -34 35 c-46 48 -188 152 -276
203 -145 84 -346 156 -513 186 -113 20 -365 28 -470 14z"/>
<path d="M10210 2550 l0 -1540 233 2 232 3 -1 23 c0 12 -1 704 -2 1537 l-2
1515 -230 0 -230 0 0 -1540z"/>
<path d="M4216 3030 c-149 -24 -293 -76 -413 -150 -97 -59 -227 -179 -288
-265 -64 -89 -131 -235 -162 -350 -24 -90 -26 -117 -26 -275 0 -159 2 -184 27
-274 69 -253 213 -454 428 -596 177 -116 321 -160 548 -167 237 -8 406 32 581
137 240 145 402 357 475 620 35 128 44 344 20 471 -94 501 -489 838 -1001 854
-71 2 -157 0 -189 -5z m315 -426 c150 -44 287 -160 358 -305 55 -113 74 -205
68 -339 -13 -279 -166 -491 -417 -576 -77 -26 -263 -26 -340 0 -101 34 -154
68 -232 146 -123 122 -187 280 -188 458 0 219 104 430 265 537 68 45 157 82
228 95 67 12 189 4 258 -16z"/>
<path d="M6512 3030 c-364 -46 -685 -290 -823 -624 -60 -146 -82 -272 -76
-446 6 -179 35 -300 107 -445 144 -290 411 -489 737 -551 124 -23 366 -15 478
16 452 123 751 497 772 961 15 322 -87 583 -312 804 -139 137 -313 230 -506
270 -91 19 -282 27 -377 15z m330 -434 c245 -86 408 -327 408 -603 0 -111 -23
-204 -74 -309 -37 -74 -59 -104 -120 -162 -117 -111 -243 -162 -399 -162 -161
0 -279 51 -403 175 -63 62 -89 97 -117 155 -123 261 -75 575 117 765 161 159
383 212 588 141z"/>
<path d="M8737 3025 c-404 -77 -732 -406 -818 -820 -39 -188 -20 -421 50 -600
93 -241 275 -441 506 -555 331 -165 701 -129 940 91 l44 41 7 -28 c12 -45 -4
-254 -26 -337 -51 -203 -178 -332 -375 -382 -69 -18 -202 -20 -277 -4 -136 28
-279 137 -367 280 l-47 77 -180 -74 c-98 -41 -187 -78 -197 -82 -17 -7 -15
-15 26 -94 124 -241 337 -416 604 -493 357 -104 763 -8 999 237 135 139 216
311 259 548 16 85 18 200 21 1118 l3 1022 -220 0 -219 0 0 -80 c0 -44 -2 -80
-5 -80 -3 0 -40 28 -83 62 -86 68 -188 120 -284 143 -93 23 -267 28 -361 10z
m374 -429 c141 -49 242 -142 314 -291 103 -211 98 -446 -13 -659 -169 -324
-603 -384 -868 -120 -122 121 -184 275 -184 460 0 321 200 580 490 634 67 13
187 2 261 -24z"/>
<path d="M11700 3028 c-36 -5 -109 -24 -163 -42 -338 -116 -577 -409 -644
-791 -22 -126 -13 -358 17 -475 84 -320 295 -573 575 -689 351 -147 752 -101
1043 119 76 57 221 201 242 241 9 16 -10 32 -163 134 -96 63 -178 115 -182
115 -4 0 -17 -12 -28 -27 -80 -103 -182 -181 -292 -224 -53 -20 -77 -23 -200
-23 -118 0 -149 4 -197 22 -114 42 -221 132 -283 238 -15 25 -25 47 -23 49 1
1 317 132 700 291 l696 287 -20 56 c-188 518 -592 788 -1078 719z m322 -418
c81 -25 162 -81 206 -143 19 -26 33 -49 31 -51 -13 -10 -921 -386 -933 -386
-13 0 -5 91 14 164 28 110 73 190 155 272 109 111 228 163 376 163 60 1 107
-5 151 -19z"/>
</g>
</svg>
