<?xml version="1.0" standalone="no"?>
<!DOCTYPE svg PUBLIC "-//W3C//DTD SVG 20010904//EN"
 "http://www.w3.org/TR/2001/REC-SVG-20010904/DTD/svg10.dtd">
<svg version="1.0" xmlns="http://www.w3.org/2000/svg"
 width="1280.000000pt" height="640.000000pt" viewBox="0 0 1280.000000 640.000000"
 preserveAspectRatio="xMidYMid meet">
<g transform="translate(0.000000,640.000000) scale(0.100000,-0.100000)"
fill="#000000" stroke="none">
<path d="M0 3920 l0 -640 645 0 645 0 0 640 0 640 -645 0 -645 0 0 -640z"/>
<path d="M1447 4553 c-4 -3 -7 -291 -7 -640 l0 -633 640 0 640 0 0 640 0 640
-633 0 c-349 0 -637 -3 -640 -7z"/>
<path d="M11874 4120 c-99 -21 -186 -77 -239 -154 -55 -81 -67 -126 -74 -276
l-6 -135 -95 -5 -95 -5 0 -100 0 -100 95 -5 95 -5 3 -472 2 -473 130 0 130 0
2 473 3 472 210 0 210 0 6 -355 c7 -410 12 -439 85 -520 50 -55 98 -78 188
-90 74 -11 170 -2 244 21 l32 11 0 102 0 103 -56 -19 c-95 -32 -171 -8 -212
65 -15 29 -17 68 -17 357 l0 325 143 3 142 3 0 104 0 104 -142 3 -143 3 -3
168 c-1 92 -6 167 -10 167 -4 0 -61 -17 -127 -38 l-120 -38 -3 -132 -3 -132
-212 2 -212 3 -3 94 c-2 62 2 111 13 146 31 108 130 150 263 109 22 -6 22 -6
22 99 0 62 -4 108 -10 112 -18 11 -192 15 -236 5z"/>
<path d="M5643 4020 c-61 -37 -85 -129 -50 -197 53 -102 227 -98 279 7 34 67
13 145 -51 187 -45 30 -132 32 -178 3z"/>
<path d="M3560 3200 l0 -811 123 3 122 3 3 623 c2 496 5 622 15 622 7 0 116
-256 263 -622 l251 -623 94 -3 95 -3 91 228 c49 125 161 407 248 626 100 253
163 397 171 397 12 0 14 -103 14 -625 l0 -625 130 0 130 0 0 810 0 810 -186
-2 -187 -3 -242 -595 c-139 -339 -249 -596 -256 -598 -10 -1 -87 183 -250 595
l-236 598 -196 3 -197 2 0 -810z"/>
<path d="M6502 3550 c-197 -53 -336 -183 -400 -374 -29 -85 -41 -276 -23 -371
17 -93 83 -217 151 -284 110 -109 234 -155 415 -154 115 1 167 9 259 44 l56
20 0 116 c0 63 -3 113 -7 111 -141 -72 -223 -93 -320 -79 -166 24 -272 136
-294 312 -26 207 65 388 226 448 50 19 75 22 150 19 79 -3 100 -8 168 -41 l78
-36 -3 121 -3 122 -60 19 c-91 30 -297 33 -393 7z"/>
<path d="M7705 3560 c-22 -4 -52 -12 -68 -18 -42 -18 -122 -97 -142 -142 -30
-67 -44 -52 -47 53 l-3 92 -125 0 -125 0 -3 -577 -2 -578 129 0 130 0 3 353
c3 343 4 354 27 411 27 68 79 129 132 157 46 23 138 25 197 5 22 -8 43 -12 46
-9 12 13 6 230 -6 240 -18 14 -96 21 -143 13z"/>
<path d="M8312 3550 c-205 -54 -349 -201 -398 -406 -23 -95 -23 -287 0 -373
53 -197 192 -336 387 -388 87 -23 272 -22 358 1 102 27 179 72 252 145 71 71
125 168 150 271 20 81 17 298 -5 380 -52 192 -189 328 -377 374 -92 23 -272
21 -367 -4z m324 -218 c126 -65 182 -199 171 -405 -9 -173 -67 -278 -180 -327
-70 -31 -202 -32 -269 -2 -137 60 -210 215 -195 411 15 180 83 289 214 337 58
22 206 14 259 -14z"/>
<path d="M9513 3555 c-116 -32 -204 -100 -250 -194 -25 -49 -28 -67 -27 -146
0 -167 46 -221 287 -340 178 -88 207 -114 207 -185 0 -130 -188 -165 -395 -74
-44 19 -86 38 -92 41 -10 4 -13 -23 -13 -115 l0 -119 53 -16 c138 -43 297 -53
407 -27 182 43 300 176 300 339 0 159 -75 246 -300 346 -58 26 -120 56 -137
68 -88 59 -80 172 14 218 39 19 57 21 127 17 74 -5 114 -16 224 -65 9 -4 12
22 12 111 l0 115 -38 11 c-125 33 -286 40 -379 15z"/>
<path d="M10585 3560 c-175 -37 -315 -140 -385 -283 -51 -105 -65 -176 -64
-327 1 -116 5 -146 26 -212 60 -181 192 -305 374 -353 228 -59 469 -3 614 144
105 107 156 232 166 411 13 232 -69 431 -223 536 -99 68 -165 86 -328 90 -77
1 -158 -1 -180 -6z m267 -220 c137 -51 208 -203 195 -413 -11 -171 -71 -280
-179 -327 -74 -32 -202 -33 -273 -1 -136 60 -202 197 -192 396 6 117 15 151
59 225 34 57 103 112 162 129 58 17 171 12 228 -9z"/>
<path d="M5607 3544 c-4 -4 -7 -265 -7 -581 l0 -574 128 3 127 3 0 575 0 575
-121 3 c-66 1 -123 -1 -127 -4z"/>
<path d="M0 2480 l0 -640 645 0 645 0 0 640 0 640 -645 0 -645 0 0 -640z"/>
<path d="M1442 2483 l3 -638 638 -3 637 -2 0 640 0 640 -640 0 -640 0 2 -637z"/>
</g>
</svg>
