<svg width="101" height="44" viewBox="0 0 101 44" fill="none" xmlns="http://www.w3.org/2000/svg">
<path d="M19.1003 32.453C17.7765 32.6876 16.4294 32.7579 15.0359 32.9453L10.7856 20.3829V33.4844C9.46185 33.625 8.25417 33.8125 7 34V10H10.5303L15.361 23.6174V10H19.1003V32.453ZM26.4162 18.7891C27.8563 18.7891 30.0626 18.7187 31.3864 18.7187V22.4687C29.7373 22.4687 27.8098 22.4687 26.4162 22.539V28.1172C28.5994 27.9766 30.7826 27.789 32.9889 27.7186V31.3278L22.7001 32.1483V10H32.9889V13.75H26.4162V18.7891ZM46.8078 13.7501H42.9525V31.0001C41.6983 31.0001 40.4441 31.0001 39.2366 31.0468V13.7501H35.3813V10H46.808L46.8078 13.7501ZM52.8463 18.5313H57.9327V22.2812H52.8463V30.7892H49.1997V10H59.5816V13.75H52.8463V18.5313ZM65.6201 27.5078C67.7337 27.5545 69.8702 27.7189 71.9374 27.8359V31.5391C68.6162 31.328 65.295 31.1173 61.9042 31.0468V10H65.6201V27.5078ZM75.0727 31.7969C76.2572 31.8673 77.5114 31.9376 78.7191 32.078V10H75.0727V31.7969ZM95 10L90.2852 21.4141L95 34C93.6064 33.8125 92.2129 33.5547 90.8193 33.3203L88.1485 26.3829L85.4315 32.7579C84.0841 32.5234 82.7836 32.453 81.4367 32.2655L86.2211 21.2733L81.9011 10H85.8956L88.3343 16.3047L90.9356 10H95Z" fill="#6A6F73"/>
</svg>
